<svg xmlns="http://www.w3.org/2000/svg" xmlns:xlink="http://www.w3.org/1999/xlink" width="94.863" height="94.863" viewBox="0 0 94.863 94.863">
  <defs>
    <linearGradient id="linear-gradient" x1="0.5" y1="1" x2="0.5" gradientUnits="objectBoundingBox">
      <stop offset="0" stop-color="#5781ff"/>
      <stop offset="1" stop-color="#3fe7ff"/>
    </linearGradient>
    <clipPath id="clip-path">
      <path id="Combined_Shape" data-name="Combined Shape" d="M-18,47.432V86.466a8.4,8.4,0,0,0,8.4,8.4H29.432A47.432,47.432,0,1,0-18,47.432Z" transform="translate(18)" fill="url(#linear-gradient)"/>
    </clipPath>
  </defs>
  <g id="ic_myspace_slt" transform="translate(-0.75 -0.75)">
    <g id="Group" transform="translate(0.75 0.75)">
      <path id="Combined_Shape-2" data-name="Combined Shape" d="M-18,47.432V86.466a8.4,8.4,0,0,0,8.4,8.4H29.432A47.432,47.432,0,1,0-18,47.432Z" transform="translate(18)" fill="url(#linear-gradient)"/>
      <g id="Group-2" data-name="Group" clip-path="url(#clip-path)">
        <path id="P" d="M8.376,42.162H0V0H18.408a12.788,12.788,0,0,1,9.814,4.022,14.16,14.16,0,0,1,3.4,9.568A14.129,14.129,0,0,1,28.2,23.134a12.767,12.767,0,0,1-9.793,4.045H8.376V42.162Zm0-34.26V19.281h8.908a5.489,5.489,0,0,0,5.782-5.692A5.43,5.43,0,0,0,17.284,7.9Z" transform="translate(31.621 31.621)" fill="#fff"/>
      </g>
    </g>
  </g>
</svg>
